<svg width="6" height="12" viewBox="0 0 6 12" fill="#555555;
" xmlns="http://www.w3.org/2000/svg">
<path d="M5.52243 11.0324C5.59082 10.9627 5.64511 10.8798 5.68216 10.7884C5.71921 10.697 5.73828 10.5989 5.73828 10.4999C5.73828 10.4009 5.71921 10.3029 5.68216 10.2115C5.64511 10.1201 5.59082 10.0371 5.52243 9.96742L2.18027 6.53242C2.11188 6.4627 2.05759 6.37975 2.02054 6.28836C1.9835 6.19696 1.96442 6.09893 1.96442 5.99992C1.96442 5.90091 1.9835 5.80288 2.02054 5.71149C2.05759 5.6201 2.11188 5.53715 2.18027 5.46742L5.52243 2.03242C5.59083 1.9627 5.64511 1.87975 5.68216 1.78836C5.71921 1.69696 5.73828 1.59893 5.73828 1.49992C5.73828 1.40091 5.71921 1.30288 5.68216 1.21149C5.64511 1.1201 5.59083 1.03715 5.52243 0.967423C5.38571 0.827735 5.20075 0.749329 5.00797 0.749329C4.81519 0.749329 4.63024 0.827735 4.49351 0.967423L1.14406 4.40992C0.734097 4.8318 0.503825 5.40367 0.503825 5.99992C0.503825 6.59618 0.734097 7.16805 1.14406 7.58992L4.49351 11.0324C4.63024 11.1721 4.81519 11.2505 5.00797 11.2505C5.20075 11.2505 5.3857 11.1721 5.52243 11.0324Z" />
</svg>
