<svg width="11" height="11" viewBox="0 0 11 11" fill="none" xmlns="http://www.w3.org/2000/svg">
<path fill-rule="evenodd" clip-rule="evenodd" d="M5.50082 1.1068C5.98035 0.62727 6.80027 0.966896 6.80027 1.64505V9.32234C6.80027 10.0005 5.98035 10.3401 5.50082 9.86059L3.09036 7.45012H1.09128C0.670878 7.45012 0.330078 7.10932 0.330078 6.68892V4.27846C0.330078 3.85806 0.670878 3.51726 1.09128 3.51726H3.09036L5.50082 1.1068ZM6.03907 1.64505L3.62861 4.05551C3.48585 4.19826 3.29224 4.27846 3.09036 4.27846H1.09128V6.68892H3.09036C3.29224 6.68892 3.48585 6.76912 3.62861 6.91187L6.03907 9.32234L6.03907 1.64505ZM9.06983 1.99093C9.24717 1.87808 9.48241 1.93036 9.59526 2.1077C10.3731 3.32997 11.4852 5.88972 9.59526 8.85969C9.48241 9.03703 9.24717 9.0893 9.06983 8.97645C8.89249 8.8636 8.84021 8.62836 8.95307 8.45102C10.6153 5.83886 9.65536 3.61998 8.95307 2.51637C8.84021 2.33903 8.89249 2.10379 9.06983 1.99093ZM7.76774 3.60066C7.93188 3.46935 8.17139 3.49597 8.3027 3.6601C8.78011 4.25687 9.47701 5.83939 8.3027 7.30728C8.17139 7.47142 7.93188 7.49803 7.76774 7.36672C7.6036 7.23541 7.57699 6.9959 7.7083 6.83177C8.56385 5.76233 8.07666 4.59608 7.7083 4.13562C7.57699 3.97148 7.6036 3.73197 7.76774 3.60066Z" fill="white"/>
</svg>
