<svg width="12" height="12" viewBox="0 0 12 12" fill="none" xmlns="http://www.w3.org/2000/svg">
<path fill-rule="evenodd" clip-rule="evenodd" d="M0.853553 0.146447C0.658291 -0.0488155 0.341709 -0.0488155 0.146447 0.146447C-0.0488155 0.341709 -0.0488155 0.658291 0.146447 0.853553L2.69926 3.40636H0.960748C0.54043 3.40636 0.199694 3.7471 0.199694 4.16742V6.57742C0.199694 6.99774 0.540429 7.33848 0.960748 7.33848H2.95945L5.36945 9.74848C5.84889 10.2279 6.66865 9.88836 6.66865 9.21033V7.37576L10.2069 10.914C10.4021 11.1093 10.7187 11.1093 10.914 10.914C11.1093 10.7187 11.1093 10.4021 10.914 10.2069L0.853553 0.146447ZM5.9076 6.61471L3.35154 4.05865C3.23411 4.12923 3.09875 4.16742 2.95945 4.16742H0.960748V6.57742H2.95945C3.16129 6.57742 3.35487 6.65761 3.49759 6.80033L5.9076 9.21033L5.9076 6.61471ZM5.9076 1.53451L5.9076 4.28919L6.66865 5.07402V1.53451C6.66865 0.856482 5.84889 0.516921 5.36945 0.99636L4.02158 2.34423L4.55145 2.89066L5.9076 1.53451ZM7.84939 6.29165L8.40431 6.86392C9.24159 5.49622 8.61231 4.10107 8.1708 3.54918C8.03951 3.38507 7.80005 3.35846 7.63594 3.48975C7.47184 3.62104 7.44523 3.8605 7.57651 4.02461C7.89597 4.42393 8.30481 5.35417 7.84939 6.29165ZM9.19245 7.67669L9.75232 8.25405C11.2295 5.49656 10.1973 3.15083 9.46311 1.99707C9.35029 1.81976 9.11509 1.7675 8.93778 1.88033C8.76048 1.99316 8.70821 2.22835 8.82104 2.40566C9.46302 3.41448 10.3204 5.35538 9.19245 7.67669Z" fill="white"/>
</svg>
