<svg width="24" height="24" viewBox="0 0 24 24" fill="none" xmlns="http://www.w3.org/2000/svg">
<path fill-rule="evenodd" clip-rule="evenodd" d="M12 22.8C17.9647 22.8 22.8 17.9648 22.8 12C22.8 6.03533 17.9648 1.19997 12 1.19997C6.03533 1.19997 1.19997 6.03533 1.19997 12C1.19997 17.9647 6.03533 22.8 12 22.8ZM12 24C18.6273 24 24 18.6273 24 12C24 5.37253 18.6273 0 12 0C5.37253 0 0 5.37253 0 12C0 18.6273 5.37253 24 12 24Z" fill="white" fill-opacity="0.3"/>
<path d="M22.8 12C22.8 17.9648 17.9647 22.8 12 22.8C6.03533 22.8 1.19997 17.9647 1.19997 12H0C0 18.6273 5.37253 24 12 24C18.6273 24 24 18.6273 24 12C24 5.37253 18.6273 0 12 0V1.19997C17.9648 1.19997 22.8 6.03533 22.8 12Z" fill="white"/>
<path d="M16.4819 11.438L10.2419 6.90196C10.0129 6.73596 9.70888 6.71096 9.45788 6.83996C9.20488 6.96796 9.04688 7.22796 9.04688 7.50896V16.578C9.04688 16.862 9.20488 17.121 9.45788 17.249C9.56488 17.303 9.68188 17.33 9.79988 17.33C9.95388 17.33 10.1099 17.281 10.2419 17.184L16.4819 12.652C16.6789 12.507 16.7939 12.283 16.7939 12.045C16.7949 11.803 16.6769 11.58 16.4819 11.438Z" fill="white"/>
</svg>
