<svg width="10" height="12" viewBox="0 0 10 12" fill="none" xmlns="http://www.w3.org/2000/svg">
<path fill-rule="evenodd" clip-rule="evenodd" d="M4.50202 0.0812505C4.68577 -0.102488 4.99996 0.0276422 4.99996 0.287494V4.71253C4.99996 4.97235 4.68577 5.1025 4.50202 4.91875L2.28953 2.70625C2.17563 2.59235 2.17563 2.40768 2.28953 2.29378L4.50202 0.0812505Z" fill="white"/>
<path fill-rule="evenodd" clip-rule="evenodd" d="M4.41634 2.49996C4.41634 2.1778 4.6775 1.91663 4.99967 1.91663C7.57702 1.91663 9.66634 4.00596 9.66634 6.58329C9.66634 9.16063 7.57702 11.25 4.99967 11.25C2.42234 11.25 0.333008 9.16063 0.333008 6.58329C0.333008 6.26112 0.594178 5.99996 0.916341 5.99996C1.2385 5.99996 1.49967 6.26112 1.49967 6.58329C1.49967 8.51628 3.06668 10.0833 4.99967 10.0833C6.93267 10.0833 8.49967 8.51628 8.49967 6.58329C8.49967 4.6503 6.93267 3.08329 4.99967 3.08329C4.6775 3.08329 4.41634 2.82212 4.41634 2.49996Z" fill="white"/>
</svg>
