<svg width="9" height="10" viewBox="0 0 9 10" fill="none" xmlns="http://www.w3.org/2000/svg">
<path d="M4.50515 9.50222C4.37743 9.50297 4.25239 9.46566 4.14596 9.39505C4.03952 9.32445 3.95653 9.22375 3.90755 9.10579C3.85858 8.98784 3.84584 8.85797 3.87096 8.73274C3.89608 8.60752 3.95793 8.49261 4.04861 8.40267L7.45658 5.00113L4.04861 1.5996C3.94327 1.47659 3.88822 1.31836 3.89447 1.15652C3.90073 0.994694 3.96781 0.841181 4.08233 0.726664C4.19685 0.612147 4.35036 0.54506 4.51219 0.53881C4.67402 0.532559 4.83225 0.587605 4.95526 0.692947L8.81334 4.55102C8.9331 4.6715 9.00032 4.83447 9.00032 5.00435C9.00032 5.17422 8.9331 5.3372 8.81334 5.45767L4.95526 9.31575C4.83549 9.43454 4.67384 9.50151 4.50515 9.50222Z" fill="white"/>
<path d="M0.646752 9.50237C0.519034 9.50311 0.393988 9.4658 0.287557 9.3952C0.181126 9.3246 0.0981313 9.2239 0.049155 9.10594C0.000178832 8.98798 -0.0125602 8.85811 0.0125621 8.73289C0.0376844 8.60766 0.0995298 8.49276 0.190213 8.40282L3.59818 5.00128L0.190213 1.59974C0.0691316 1.47866 0.00110857 1.31444 0.00110857 1.1432C0.00110857 0.971967 0.0691316 0.807745 0.190213 0.686663C0.311295 0.565582 0.475517 0.497559 0.646752 0.497559C0.817988 0.497559 0.98221 0.565582 1.10329 0.686663L4.96137 4.54474C5.08113 4.66522 5.14835 4.82819 5.14835 4.99806C5.14835 5.16794 5.08113 5.33091 4.96137 5.45139L1.10329 9.30947C1.04374 9.37022 0.972722 9.41856 0.894355 9.45167C0.815987 9.48478 0.731828 9.50202 0.646752 9.50237Z" fill="white"/>
</svg>
